<svg xmlns="http://www.w3.org/2000/svg" width="16.859" height="16.859" viewBox="0 0 16.859 16.859">
  <g id="add-post" transform="translate(-2 -2)">
    <path id="Path_2849" data-name="Path 2849" d="M24.091,27.182a.562.562,0,0,1-.562-.562V24.653H21.562a.562.562,0,0,1,0-1.124h1.967V21.562a.562.562,0,0,1,1.124,0v1.967H26.62a.562.562,0,1,1,0,1.124H24.653V26.62A.562.562,0,0,1,24.091,27.182Z" transform="translate(-13.661 -13.661)" fill="#d31e1e"/>
    <path id="Path_2850" data-name="Path 2850" d="M6.5,2A4.5,4.5,0,0,0,2,6.5v7.868a4.5,4.5,0,0,0,4.5,4.5h7.868a4.5,4.5,0,0,0,4.5-4.5V7.228a2.248,2.248,0,0,0-.714-1.643L14.952,2.6A2.248,2.248,0,0,0,13.418,2ZM3.124,6.5A3.372,3.372,0,0,1,6.5,3.124H13.24V4.81a2.248,2.248,0,0,0,2.248,2.248h2.235a1.123,1.123,0,0,1,.013.171v7.135a3.372,3.372,0,0,1-3.372,3.372H6.5a3.372,3.372,0,0,1-3.372-3.372ZM14.364,4.81V3.593l2.508,2.341H15.488A1.124,1.124,0,0,1,14.364,4.81Z" fill="#d31e1e" fill-rule="evenodd"/>
  </g>
</svg>
